<svg width="267" height="40" viewBox="0 0 267 40" fill="none" xmlns="http://www.w3.org/2000/svg">
<path d="M3.98 26V14.1H11.18V26H13.46V12H1.7V26H3.98ZM15.6619 21.2C15.6619 24.52 18.1819 26.26 20.8619 26.26C23.5619 26.26 26.0619 24.52 26.0619 21.2C26.0619 17.88 23.5619 16.14 20.8619 16.14C18.1819 16.14 15.6619 17.88 15.6619 21.2ZM23.8819 21.2C23.8819 23.08 22.6419 24.3 20.8619 24.3C19.0619 24.3 17.8219 23.08 17.8219 21.2C17.8219 19.32 19.0619 18.1 20.8619 18.1C22.6419 18.1 23.8819 19.32 23.8819 21.2ZM27.5369 21.28C27.5369 24.7 30.1569 26.26 32.7169 26.26C33.9369 26.26 34.9769 26.04 35.8969 25.6V23.62C35.1369 24.06 34.1169 24.36 33.0969 24.36C31.3769 24.36 29.7169 23.38 29.7169 21.2C29.7169 18.94 31.4369 18.04 33.1369 18.04C34.1169 18.04 35.0969 18.34 35.7969 18.84V16.88C34.9569 16.38 33.9169 16.14 32.8369 16.14C30.2769 16.14 27.5369 17.7 27.5369 21.28ZM40.0992 26V19.5L42.8192 23.7H44.0992L46.8392 19.5V26H48.8992V16.4H46.7392L43.4592 21.46L40.1992 16.4H38.0392V26H40.0992ZM50.9744 21.2C50.9744 24.52 53.4944 26.26 56.1744 26.26C58.8744 26.26 61.3744 24.52 61.3744 21.2C61.3744 17.88 58.8744 16.14 56.1744 16.14C53.4944 16.14 50.9744 17.88 50.9744 21.2ZM59.1944 21.2C59.1944 23.08 57.9544 24.3 56.1744 24.3C54.3744 24.3 53.1344 23.08 53.1344 21.2C53.1344 19.32 54.3744 18.1 56.1744 18.1C57.9544 18.1 59.1944 19.32 59.1944 21.2ZM67.6555 26V18.28H70.9555V16.4H62.1955V18.28H65.5155V26H67.6555ZM74.5291 17.9V16.4H72.6291V30.4H74.7691V24.76C75.4291 25.52 76.5491 26.26 78.2291 26.26C81.1091 26.26 82.9891 23.96 82.9891 21.2C82.9891 18.44 81.1091 16.14 78.2291 16.14C76.4291 16.14 75.2891 16.98 74.5291 17.9ZM80.8091 21.2C80.8091 23.08 79.5691 24.38 77.8291 24.38C76.3491 24.38 75.2291 23.42 74.7691 22.36V20.02C75.2291 18.98 76.3491 18.02 77.8291 18.02C79.5691 18.02 80.8091 19.32 80.8091 21.2ZM84.4705 21.2C84.4705 24.58 86.9705 26.26 89.9105 26.26C91.2505 26.26 92.4705 26.02 93.3505 25.6V23.76C92.5305 24.16 91.4705 24.44 90.3105 24.44C88.5505 24.44 86.8705 23.72 86.6305 22H93.8505C94.4705 19.22 93.1505 16.14 89.3305 16.14C87.1105 16.14 84.4705 17.72 84.4705 21.2ZM91.9305 20.4H86.6105C86.6905 18.78 87.9905 17.92 89.4305 17.92C91.5305 17.92 92.0505 19.56 91.9305 20.4ZM100.292 26V18.28H103.592V16.4H94.8322V18.28H98.1522V26H100.292ZM110.026 26C112.446 26 113.826 24.6 113.826 22.8C113.826 20.98 112.446 19.6 110.026 19.6H107.406V16.4H105.266V26H110.026ZM107.406 21.28H109.606C110.866 21.28 111.646 21.8 111.646 22.8C111.646 23.78 110.866 24.3 109.606 24.3H107.406V21.28ZM126.062 26C128.282 26 129.222 24.84 129.222 23.36C129.222 22.18 128.482 21.42 127.582 21.14C128.402 20.78 128.942 20.02 128.942 18.96C128.942 17.46 127.842 16.4 125.902 16.4H120.422V26H126.062ZM122.562 21.92H125.582C126.322 21.92 127.062 22.18 127.062 23.16C127.062 24.08 126.422 24.38 125.542 24.38H122.562V21.92ZM122.562 18.02H125.422C126.082 18.02 126.782 18.3 126.782 19.24C126.782 20.1 126.182 20.4 125.422 20.4H122.562V18.02ZM130.779 21.28C130.779 24.7 133.399 26.26 135.959 26.26C137.179 26.26 138.219 26.04 139.139 25.6V23.62C138.379 24.06 137.359 24.36 136.339 24.36C134.619 24.36 132.959 23.38 132.959 21.2C132.959 18.94 134.679 18.04 136.379 18.04C137.359 18.04 138.339 18.34 139.039 18.84V16.88C138.199 16.38 137.159 16.14 136.079 16.14C133.519 16.14 130.779 17.7 130.779 21.28ZM140.525 21.2C140.525 24.58 143.025 26.26 145.965 26.26C147.305 26.26 148.525 26.02 149.405 25.6V23.76C148.585 24.16 147.525 24.44 146.365 24.44C144.605 24.44 142.925 23.72 142.685 22H149.905C150.525 19.22 149.205 16.14 145.385 16.14C143.165 16.14 140.525 17.72 140.525 21.2ZM147.985 20.4H142.665C142.745 18.78 144.045 17.92 145.485 17.92C147.585 17.92 148.105 19.56 147.985 20.4ZM162.41 26C164.63 26 165.57 24.84 165.57 23.36C165.57 22.18 164.83 21.42 163.93 21.14C164.75 20.78 165.29 20.02 165.29 18.96C165.29 17.46 164.19 16.4 162.25 16.4H156.77V26H162.41ZM158.91 21.92H161.93C162.67 21.92 163.41 22.18 163.41 23.16C163.41 24.08 162.77 24.38 161.89 24.38H158.91V21.92ZM158.91 18.02H161.77C162.43 18.02 163.13 18.3 163.13 19.24C163.13 20.1 162.53 20.4 161.77 20.4H158.91V18.02ZM175.907 23.78V20.34C175.907 17.44 174.187 16.14 171.467 16.14C169.927 16.14 168.547 16.52 167.787 16.78V18.74C168.647 18.36 169.827 18 171.247 18C172.887 18 173.767 18.84 173.767 20.04V20.38C173.007 20.22 172.087 20.1 171.267 20.1C169.267 20.1 166.987 20.86 166.987 23.32C166.987 25.3 168.607 26.26 170.347 26.26C171.847 26.26 173.027 25.78 173.967 25.02C174.307 25.8 175.007 26.14 175.887 26.14C176.367 26.14 176.847 26.06 177.247 25.9V24.36C177.047 24.42 176.827 24.48 176.607 24.48C176.227 24.48 175.907 24.32 175.907 23.78ZM171.687 21.6C172.367 21.6 173.187 21.72 173.767 21.84V23.46C173.007 24.22 172.007 24.6 170.987 24.6C170.027 24.6 169.187 24.12 169.187 23.18C169.187 21.98 170.467 21.6 171.687 21.6ZM180.76 17.9V16.4H178.86V30.4H181V24.76C181.66 25.52 182.78 26.26 184.46 26.26C187.34 26.26 189.22 23.96 189.22 21.2C189.22 18.44 187.34 16.14 184.46 16.14C182.66 16.14 181.52 16.98 180.76 17.9ZM187.04 21.2C187.04 23.08 185.8 24.38 184.06 24.38C182.58 24.38 181.46 23.42 181 22.36V20.02C181.46 18.98 182.58 18.02 184.06 18.02C185.8 18.02 187.04 19.32 187.04 21.2ZM193.141 26L198.281 19.72V26H200.421V16.4H198.581L193.441 22.68V16.4H191.301V26H193.141ZM211.278 23.78V20.34C211.278 17.44 209.558 16.14 206.838 16.14C205.298 16.14 203.918 16.52 203.158 16.78V18.74C204.018 18.36 205.198 18 206.618 18C208.258 18 209.138 18.84 209.138 20.04V20.38C208.378 20.22 207.458 20.1 206.638 20.1C204.638 20.1 202.358 20.86 202.358 23.32C202.358 25.3 203.978 26.26 205.718 26.26C207.218 26.26 208.398 25.78 209.338 25.02C209.678 25.8 210.378 26.14 211.258 26.14C211.738 26.14 212.218 26.06 212.618 25.9V24.36C212.418 24.42 212.198 24.48 211.978 24.48C211.598 24.48 211.278 24.32 211.278 23.78ZM207.058 21.6C207.738 21.6 208.558 21.72 209.138 21.84V23.46C208.378 24.22 207.378 24.6 206.358 24.6C205.398 24.6 204.558 24.12 204.558 23.18C204.558 21.98 205.838 21.6 207.058 21.6ZM216.371 26V22.14H221.171V26H223.311V16.4H221.171V20.26H216.371V16.4H214.231V26H216.371ZM230.448 26V18.28H233.748V16.4H224.988V18.28H228.308V26H230.448ZM240.182 26C242.602 26 243.982 24.6 243.982 22.8C243.982 20.98 242.602 19.6 240.182 19.6H237.562V16.4H235.422V26H240.182ZM237.562 21.28H239.762C241.022 21.28 241.802 21.8 241.802 22.8C241.802 23.78 241.022 24.3 239.762 24.3H237.562V21.28ZM247.842 26V16.4H245.702V26H247.842Z" fill="white"/>
<path d="M257.778 12.2218L265.556 20L257.778 27.7782" stroke="white" stroke-width="2"/>
</svg>
